<svg xmlns="http://www.w3.org/2000/svg" viewBox="-0.9259259259259238 -0.9259259259259238 201.85185185185185 201.85185185185185" preserveAspectRatio="xMidYMid meet" style="stroke-width: 1px; fill: white;">
  <g>
    <path d="M100 0C44.8 0 0 44.8 0 100s44.8 100 100 100 100-44.8 100-100S155.2 0 100 0zm0 191.7c-50.5 0-91.7-41.1-91.7-91.7C8.3 49.5 49.5 8.3 100 8.3s91.7 41.1 91.7 91.7c0 50.5-41.2 91.7-91.7 91.7z"></path>
    <path d="M116.1 107.3c0-8.4-5.3-11-12-14.4l-3.6-1.8c-6.7-3.3-7.4-3.9-7.4-6.9 0-5 5.1-5.5 7.3-5.5s7.2.5 7.2 5.5c0 2.3 1.9 4.2 4.2 4.2 2.3 0 4.2-1.9 4.2-4.2 0-7-4.4-12-11.4-13.4v-5.3c0-2.3-1.9-4.2-4.2-4.2s-4.2 1.9-4.2 4.2v5.3c-6.9 1.5-11.5 6.5-11.5 13.4 0 8.4 5.3 11 12 14.3l3.6 1.8c6.8 3.3 7.4 3.9 7.4 6.9 0 4.9-5.1 5.4-7.3 5.4s-7.3-.5-7.3-5.4c0-2.3-1.9-4.2-4.2-4.2-2.3 0-4.2 1.9-4.2 4.2 0 6.9 4.5 11.9 11.5 13.3v8.5c0 2.3 1.9 4.2 4.2 4.2s4.2-1.9 4.2-4.2v-8.5c7-1.2 11.5-6.2 11.5-13.2z"></path>
    <path d="M39.5 47.9c-1.5 1.7-1.3 4.4.5 5.9.7.7 1.7 1 2.7 1 1.2 0 2.3-.5 3.2-1.4 1.5-1.7 1.3-4.4-.5-5.9-1.7-1.6-4.4-1.4-5.9.4z"></path>
    <path d="M37.9 143.4c-1.8 1.4-2.1 4-.7 5.8.8 1 2 1.6 3.3 1.6.9 0 1.8-.3 2.6-.9 1.8-1.4 2.1-4 .7-5.9-1.5-1.7-4.1-2-5.9-.6z"></path>
    <path d="M56 33.4c-1.9 1.2-2.5 3.8-1.2 5.7.8 1.2 2.1 1.9 3.5 1.9.8 0 1.6-.2 2.3-.7 1.9-1.3 2.5-3.9 1.2-5.8-1.3-1.8-3.9-2.4-5.8-1.1z"></path>
    <path d="M52 158.6c-1.4 1.8-1 4.5.9 5.8.7.5 1.6.8 2.4.8 1.3 0 2.6-.6 3.4-1.7 1.4-1.9 1-4.5-.9-5.8-1.8-1.3-4.5-.9-5.8.9z"></path>
    <path d="M33.2 64.2c-2.1-1-4.5-.1-5.5 2s-.1 4.6 2 5.5c.5.3 1.2.4 1.7.4 1.5 0 3.1-.9 3.8-2.4 1-2 .1-4.5-2-5.5z"></path>
    <path d="M29 108.1c-.3-2.3-2.3-3.9-4.6-3.7-2.3.3-3.9 2.3-3.7 4.6.3 2.1 2 3.7 4.1 3.7h.5c2.3-.2 3.9-2.3 3.7-4.6z"></path>
    <path d="M166.3 67.7c.7 0 1.4-.2 2-.5 2-1.1 2.7-3.6 1.6-5.7-1.1-2-3.7-2.8-5.7-1.6-2 1.1-2.8 3.6-1.6 5.7.8 1.3 2.2 2.1 3.7 2.1z"></path>
    <path d="M97.5 28.6h.2c2.3 0 4.1-2 4-4.3 0-2.3-2-4.1-4.3-4-2.3 0-4.1 2-4 4.3 0 2.2 1.8 4 4.1 4z"></path>
    <path d="M28.4 124.9c-2.2.9-3.2 3.3-2.3 5.5.7 1.6 2.2 2.6 3.9 2.6.5 0 1-.1 1.5-.3 2.2-.9 3.2-3.3 2.3-5.4-.8-2.3-3.3-3.3-5.4-2.4z"></path>
    <path d="M75.1 167c-2.2-.8-4.5.3-5.3 2.5-.8 2.2.3 4.6 2.4 5.4.5.2 1 .3 1.5.3 1.7 0 3.3-1 3.9-2.7.7-2.3-.4-4.7-2.5-5.5z"></path>
    <path d="M24.6 92h.7c2 0 3.7-1.5 4.1-3.5.4-2.3-1.2-4.4-3.5-4.8-2.3-.3-4.4 1.2-4.8 3.5-.3 2.3 1.3 4.4 3.5 4.8z"></path>
    <path d="M169.7 83.9c.5 1.9 2.2 3.2 4 3.2.3 0 .6 0 1-.1 2.3-.5 3.6-2.7 3.1-5s-2.7-3.7-5-3.1c-2.3.5-3.7 2.7-3.1 5z"></path>
    <path d="M151 43.9c-1.7 1.6-1.7 4.2 0 5.9.8.8 1.9 1.2 3 1.2 1 0 2.1-.4 2.9-1.2 1.6-1.6 1.7-4.3 0-5.9-1.7-1.6-4.3-1.6-5.9 0z"></path>
    <path d="M148.5 152.6c-1.7 1.5-1.8 4.2-.3 5.9.8.9 1.9 1.3 3 1.3 1 0 2-.3 2.8-1.1 1.7-1.6 1.8-4.2.2-5.9-1.4-1.7-4-1.8-5.7-.2z"></path>
    <path d="M75.8 23.9c-2.2.7-3.4 3-2.7 5.2.6 1.8 2.2 2.9 4 2.9.4 0 .8-.1 1.2-.2 2.2-.7 3.4-3 2.7-5.2-.7-2.2-3.1-3.4-5.2-2.7z"></path>
    <path d="M174 116.6c-2.2-.6-4.5.7-5.1 2.9-.6 2.2.7 4.5 2.9 5.1.4.1.8.2 1.1.2 1.8 0 3.5-1.2 4-3 .6-2.3-.7-4.6-2.9-5.2z"></path>
    <path d="M175.7 95.8c-2.3 0-4.2 1.9-4.2 4.2 0 2.3 1.9 4.2 4.2 4.2 2.3 0 4.2-1.8 4.2-4.2-.1-2.3-1.9-4.2-4.2-4.2z"></path>
    <path d="M166.7 136c-2-1.2-4.5-.6-5.7 1.4-1.2 2-.6 4.5 1.4 5.7.7.4 1.4.6 2.2.6 1.4 0 2.8-.7 3.5-2 1.1-1.9.5-4.5-1.4-5.7z"></path>
    <path d="M113.8 170.1c-2.3.5-3.7 2.6-3.3 4.9.4 2 2.1 3.3 4.1 3.3h.8c2.3-.5 3.7-2.7 3.3-4.9-.4-2.2-2.6-3.7-4.9-3.3z"></path>
    <path d="M94.2 171.3c-2.3-.2-4.3 1.5-4.5 3.8-.2 2.3 1.5 4.3 3.8 4.5h.3c2.1 0 4-1.7 4.1-3.8.3-2.4-1.4-4.4-3.7-4.5z"></path>
    <path d="M119.1 22.5c-2.3-.5-4.5.8-5 3-.5 2.3.8 4.5 3 5 .3.1.7.1 1 .1 1.9 0 3.6-1.3 4-3.2.6-2.1-.8-4.4-3-4.9z"></path>
    <path d="M139.5 30.6c-2-1.1-4.5-.5-5.7 1.5s-.5 4.5 1.5 5.7c.7.3 1.4.5 2.1.5 1.5 0 2.8-.7 3.6-2.1 1.2-1.9.5-4.5-1.5-5.6z"></path>
    <path d="M132.4 163.8c-2 1-2.9 3.5-1.8 5.6.8 1.5 2.2 2.3 3.7 2.3.6 0 1.2-.1 1.9-.5 2-1 2.8-3.5 1.8-5.6-1.1-2.1-3.6-2.9-5.6-1.8z"></path>
  </g>
</svg>