<svg xmlns="http://www.w3.org/2000/svg" viewBox="26.499998092651367 48 146.90000915527344 104.00001525878906" preserveAspectRatio="xMidYMid meet" style="stroke-width: 0px; fill: white;">
  <g>
    <path d="M170.4 133.7h-9.2V60.2c0-6.8-5.5-12.2-12.2-12.2H51c-6.8 0-12.2 5.5-12.2 12.2v73.4h-9.2c-1.7 0-3.1 1.4-3.1 3.1v3.1c0 6.7 5.5 12.2 12.2 12.2h122.4c6.7 0 12.2-5.5 12.2-12.2v-3.1c.1-1.7-1.2-3-2.9-3zm-21.4-9.2c0 1.7-1.4 3.1-3.1 3.1H54.1c-1.7 0-3.1-1.4-3.1-3.1V63.3c0-1.7 1.4-3.1 3.1-3.1h91.8c1.7 0 3.1 1.4 3.1 3.1v61.2z"></path>
    <path d="M55.7 64.5h88.1v58.7H55.7V64.5z"></path>
  </g>
</svg>