<svg xmlns="http://www.w3.org/2000/svg" viewBox="18.823521782370165 18.873517204733446 162.3529411764706 162.3529411764706" preserveAspectRatio="xMidYMid meet" style="stroke-width: 1px; fill: white;">
  <g>
    <path d="M145.8 147.5c.2.1.5.2.7.4h34v-1.4c0-.5-2-46-50.9-46-.6 0-1.2 0-1.7.1v-.1h.7c9.7 0 17.9-6.5 20.9-15.6l3.8-.1c3.4 0 5.6-3.2 5.6-7.6V54.1c0-11.2-11.4-21.1-24.5-21.1h-11.2c-10.4 0-19.7 6.2-23.1 14.4C96.6 39.2 87.3 33 76.9 33H65.7c-13 0-24.5 9.9-24.5 21.1v23.1c0 4.4 2.2 7.6 5.6 7.6l3.8.1c2.7 8.4 10.1 14.6 18.8 15.5 0 .1.1.1.1.2-47.9.6-50 45.5-50 46v1.4h34s.1 0 .1-.1c-4.1 9.4-4.2 17.4-4.2 17.9v1.3h101.1v-1.4c-.1-.2-.5-8.6-4.7-18.2zm-16.2-44.3c42.2-.1 47.6 34.6 48.2 42.1H145c-.1.1-.1.2-.2.3-5.8-11.7-17.5-24.4-41.4-25.7 7.7-1.9 13.8-7.9 16.1-15.7h3.7c.5 0 1-.1 1.4-.3 1.6-.3 3.9-.7 5-.7zm-28.4 19.2c5.8.1 11 .9 15.4 2.2l-15.4 8.7v-10.9zm-2.7-4.7c-10.7 0-19.1-9-19.1-20.2V80.6c0-2.7 2.6-6.6 5.1-6.6h28.3c2.5 0 5.1 3.6 5.2 6.2v15.1l-.1 2.2c0 11.1-8.8 20.2-19.4 20.2zm21.7-16.3c.2-1.2.3-2.5.3-3.8v-6.8h2.6c1.9 0 3.2 2.9 3.2 5.5 0 2.5-1.1 5.1-3.2 5.1h-2.9zM148 77.6c0 9.6-8.4 17.6-17.6 19.6-.4.1-1.2.2-1.7.3l-.1.1c0-.4.1-.8.1-1.2V73.2c0-7.7-5.3-14.7-12.8-18.4h27c2.5 0 5.1 2.8 5.2 5.4v15.1l-.1 2.3zm5.2 4.5h-3c.3-1.5.4-3 .4-4.5v-6h2.6c1.9 0 3.2 2.9 3.2 5.5 0 2.5-1.1 5-3.2 5zm-30.1-46.5h11.2c11.5 0 21.7 8.6 21.7 18.5v11.7c0 1.6 0 3 .1 4.4-.8-.7-1.8-1.2-3-1.2h-2.6v-8.7c0-4.2-3.7-8.1-7.7-8.1l-12.5.1h-24.9c-.4 0-.8-.1-1.2-.1h-2.6c1.3-9.1 10.8-16.6 21.5-16.6zm-14.8 16.9c-.5-.1-1.1-.2-1.6-.2.7 0 1.2 0 1.6.2zm-4 2.3c11.5 0 21.7 8.6 21.7 18.5V85c0 1.6 0 3 .1 4.4-.8-.7-1.8-1.2-3-1.2h-2.6v-7.9c0-4.2-3.7-8.9-7.7-8.9H84.5c-4 0-7.7 5.2-7.7 9.3v7.5h-2.6c-1.1 0-2 .4-2.7 1v-16c0-9.8 10.1-18.5 21.6-18.5h11.2zm-27.2 46.5h-2.9c-2.1 0-3.2-2.5-3.2-5 0-2.7 1.3-5.5 3.2-5.5h2.6v6.8c-.1 1.2.1 2.5.3 3.7zM89 52.5c.8-.3 2.1-.3 4-.3-1.4-.1-2.7.1-4 .3zM46.8 82.1c-2.1 0-3.2-2.5-3.2-5 0-2.7 1.3-5.5 3.2-5.5h2.6v6c0 1.6.2 3.1.4 4.5h-3zm2.6-21.8V69h-2.6c-1.2 0-2.2.5-3 1.2.1-1.3.1-2.8.1-4.4V54.1c0-9.8 10.2-18.5 21.7-18.5h11.2c10.7 0 20.2 7.5 21.5 16.5H57.1c-4 0-7.7 4-7.7 8.2zm19.1 12.9v23.7c-.2-.1-.5-.1-.7-.2C59.4 94.1 52 86.6 52 77.6l-.1-2.2V60.3c0-2.7 2.6-5.4 5.2-5.4h24.3c-7.6 3.7-12.9 10.7-12.9 18.3zm-46.4 72c.7-7.5 6-42.2 48.2-42.1.3 0 .8 0 1.3.1.7.5 1.6.8 2.5.8h3.5c2.2 8 8.4 14.1 16.3 15.8-14.5 1.2-26 7.1-34.2 17.5-2 2.6-3.6 5.2-4.9 7.8H22.1zm76.5 19.2H51.7c.4-3.8 2.1-15.1 10.1-25.3 4.8-6.2 11-10.6 18.2-13.4l18.6 10.5v28.2zm0-31.2l-15.3-8.7c4.7-1.4 9.8-2.1 15.3-2.2v10.9zm2.6 31.2v-28.1l18.8-10.6c23.6 8.9 27.2 32.6 27.8 38.7h-46.6z"></path>
    <path d="M109.9 136c-1.4 0-2.5 1.1-2.5 2.5s1.1 2.5 2.5 2.5 2.5-1.1 2.5-2.5-1.1-2.5-2.5-2.5zm0 2.7c-.1 0-.1-.1-.1-.1l.1-.1v.2z"></path>
    <path d="M109.9 146.5c-1.4 0-2.5 1.1-2.5 2.5s1.1 2.5 2.5 2.5 2.5-1.1 2.5-2.5-1.1-2.5-2.5-2.5zm0 2.6c-.1 0-.1-.1-.1-.1l.1-.1v.2z"></path>
  </g>
</svg>