<svg version="1.1" xmlns="http://www.w3.org/2000/svg" viewBox="59.106799931202126 59.106792301807594 81.78640776699028 81.78640776699028" preserveAspectRatio="xMidYMid meet" style="stroke-width: 1px; fill: white;"><g><path class="st0" d="M140.2,75.5c-0.2-0.6-0.8-0.9-1.4-0.9l-77.7,3c-0.7,0-1.2,0.5-1.4,1.1c-0.2,0.7,0.1,1.3,0.7,1.7L79,90.9
	l-8,13.1c-0.3,0.5-0.3,1.1,0,1.6c0.3,0.5,0.8,0.8,1.4,0.7l13.8-0.9l4.4,18.8c0.1,0.5,0.5,1,1.1,1.1c0.1,0,0.3,0.1,0.4,0.1
	c0.4,0,0.8-0.2,1.1-0.4l46.8-47.8C140.4,76.7,140.5,76.1,140.2,75.5z M66.4,80.4l62.3-2.4L82.4,89.6c-0.1-0.2-0.3-0.4-0.5-0.5
	L66.4,80.4z M75.2,103.2l7.3-12c0.1-0.2,0.2-0.4,0.2-0.6l52.5-13l-46.7,25.2c-0.3-0.2-0.6-0.4-1-0.4c0,0-0.1,0-0.1,0L75.2,103.2z
	 M92.9,120.9l-4-17.3l44.7-24.1L92.9,120.9z"></path></g></svg>