<svg xmlns="http://www.w3.org/2000/svg" viewBox="-0.7621359223301027 5.592233009708735 201.5242718446602 188.81553398058253" preserveAspectRatio="xMidYMid meet" style="stroke-width: 1px; fill: white; stroke: black;">
  <g>
    <path d="M100 6.5C48.4 6.5 6.5 48.4 6.5 100s41.9 93.5 93.5 93.5 93.5-41.9 93.5-93.5S151.6 6.5 100 6.5zm0 5c48.8 0 88.5 39.8 88.5 88.6 0 15.9-4.2 30.9-11.6 43.9H145v-23h15.7l-16-73.3-4.9-.1-15.7 73.4H140v23h-37v-15h10.6l-11.2-55h-4.9l-11.2 55H97v15H60v-23h15.9L60.2 47.7l-4.9-.1-16 73.3H55v23H23.2c-7.4-13-11.6-28-11.6-43.9-.1-48.7 39.6-88.5 88.4-88.5zM37.9 163h124.2c-3.5 3-7.2 6-11.1 9H49c-3.9-3-7.7-6-11.1-9zm-4.8-5c-2.5-3-4.8-6-6.9-9h147.4c-2.1 3-4.4 6-6.9 9H33.1zm97.2-42l11.9-55.9 12.2 55.9h-24.1zm-37.8 8l7.5-36.6 7.5 36.6h-15zm-46.9-8l12.2-55.9L69.7 116H45.6zM57 177h86c-12.7 7-27.4 11.2-43 11.2-15.6 0-30.2-4.2-43-11.2zm43-125.4c7.4 0 13.4-6 13.4-13.4s-6-13.4-13.4-13.4-13.4 6-13.4 13.4 6 13.4 13.4 13.4zm0-21.8c4.6 0 8.4 3.7 8.4 8.4s-3.7 8.4-8.4 8.4-8.4-3.7-8.4-8.4 3.8-8.4 8.4-8.4z"></path>
  </g>
</svg>